<svg xmlns="http://www.w3.org/2000/svg" xmlns:xlink="http://www.w3.org/1999/xlink" width="500" zoomAndPan="magnify" viewBox="0 0 375 149.999998" height="200" preserveAspectRatio="xMidYMid meet" version="1.0"><defs><g/></defs><g fill="#ff007a" fill-opacity="1"><g transform="translate(11.081908, 110.305983)"><g><path d="M 0 0 L 12.703125 0 L 12.703125 -33.90625 C 12.703125 -36.492188 13.347656 -39.183594 14.855469 -41.871094 C 16.039062 -44.027344 17.867188 -45.855469 20.453125 -47.46875 C 22.605469 -48.761719 25.1875 -49.515625 28.203125 -49.515625 C 31.214844 -49.515625 33.800781 -48.761719 36.058594 -47.46875 C 38.429688 -46.070312 40.257812 -44.132812 41.765625 -41.65625 C 43.058594 -39.074219 43.808594 -36.492188 43.808594 -33.90625 L 43.808594 0 L 56.511719 0 L 56.511719 -33.90625 C 56.511719 -39.074219 55.21875 -43.808594 52.746094 -48.117188 C 50.269531 -52.421875 46.824219 -55.867188 42.410156 -58.449219 C 37.890625 -60.925781 33.152344 -62.21875 28.203125 -62.21875 C 22.496094 -62.21875 17.332031 -60.601562 12.703125 -57.480469 L 12.703125 -93.433594 L 0 -93.433594 Z M 0 0 "/></g></g></g><g fill="#ff007a" fill-opacity="1"><g transform="translate(69.421393, 110.305983)"><g><path d="M 31.648438 1.292969 C 36.058594 1.292969 40.042969 0.539062 43.703125 -1.078125 C 46.179688 -2.046875 48.546875 -3.445312 50.914062 -5.167969 L 50.914062 0 L 63.617188 0 L 63.617188 -61.25 L 50.914062 -61.25 L 50.914062 -55.652344 C 48.546875 -57.375 46.179688 -58.664062 43.703125 -59.742188 C 39.933594 -61.355469 35.953125 -62.21875 31.648438 -62.21875 C 25.835938 -62.21875 20.558594 -60.710938 15.824219 -57.910156 C 10.871094 -55.003906 6.996094 -51.128906 4.199219 -46.285156 C 1.398438 -41.335938 0 -35.953125 0 -30.355469 C 0 -24.542969 1.398438 -19.269531 4.199219 -14.53125 C 7.105469 -9.472656 10.980469 -5.597656 15.824219 -2.90625 C 20.773438 -0.109375 26.050781 1.292969 31.648438 1.292969 Z M 31.648438 -11.410156 C 28.203125 -11.410156 25.082031 -12.164062 22.175781 -13.886719 C 19.269531 -15.609375 16.898438 -17.867188 15.175781 -20.882812 C 13.457031 -23.898438 12.703125 -27.125 12.703125 -30.355469 C 12.703125 -33.800781 13.457031 -37.027344 15.175781 -40.042969 C 17.007812 -43.164062 19.375 -45.53125 22.175781 -47.039062 C 24.757812 -48.652344 27.988281 -49.515625 31.648438 -49.515625 C 35.089844 -49.515625 38.214844 -48.652344 41.226562 -46.933594 C 44.027344 -45.210938 46.285156 -42.949219 48.222656 -39.933594 C 49.945312 -37.136719 50.808594 -33.90625 50.808594 -30.355469 C 50.808594 -26.910156 49.945312 -23.789062 48.222656 -20.773438 C 46.609375 -17.976562 44.242188 -15.714844 41.226562 -13.886719 C 38.214844 -12.164062 35.089844 -11.410156 31.648438 -11.410156 Z M 31.648438 -11.410156 "/></g></g></g><g fill="#ff007a" fill-opacity="1"><g transform="translate(134.864975, 110.305983)"><g><path d="M 22.605469 0 L 34.875 0 L 57.589844 -61.25 L 44.132812 -61.25 L 28.847656 -19.914062 L 13.5625 -61.25 L 0 -61.25 Z M 22.605469 0 "/></g></g></g><g fill="#ff007a" fill-opacity="1"><g transform="translate(194.280833, 110.305983)"><g><path d="M 31.648438 1.292969 C 36.058594 1.292969 40.042969 0.539062 43.703125 -1.078125 C 46.179688 -2.046875 48.546875 -3.445312 50.914062 -5.167969 L 50.914062 0 L 63.617188 0 L 63.617188 -61.25 L 50.914062 -61.25 L 50.914062 -55.652344 C 48.546875 -57.375 46.179688 -58.664062 43.703125 -59.742188 C 39.933594 -61.355469 35.953125 -62.21875 31.648438 -62.21875 C 25.835938 -62.21875 20.558594 -60.710938 15.824219 -57.910156 C 10.871094 -55.003906 6.996094 -51.128906 4.199219 -46.285156 C 1.398438 -41.335938 0 -35.953125 0 -30.355469 C 0 -24.542969 1.398438 -19.269531 4.199219 -14.53125 C 7.105469 -9.472656 10.980469 -5.597656 15.824219 -2.90625 C 20.773438 -0.109375 26.050781 1.292969 31.648438 1.292969 Z M 31.648438 -11.410156 C 28.203125 -11.410156 25.082031 -12.164062 22.175781 -13.886719 C 19.269531 -15.609375 16.898438 -17.867188 15.175781 -20.882812 C 13.457031 -23.898438 12.703125 -27.125 12.703125 -30.355469 C 12.703125 -33.800781 13.457031 -37.027344 15.175781 -40.042969 C 17.007812 -43.164062 19.375 -45.53125 22.175781 -47.039062 C 24.757812 -48.652344 27.988281 -49.515625 31.648438 -49.515625 C 35.089844 -49.515625 38.214844 -48.652344 41.226562 -46.933594 C 44.027344 -45.210938 46.285156 -42.949219 48.222656 -39.933594 C 49.945312 -37.136719 50.808594 -33.90625 50.808594 -30.355469 C 50.808594 -26.910156 49.945312 -23.789062 48.222656 -20.773438 C 46.609375 -17.976562 44.242188 -15.714844 41.226562 -13.886719 C 38.214844 -12.164062 35.089844 -11.410156 31.648438 -11.410156 Z M 31.648438 -11.410156 "/></g></g></g><g fill="#ff007a" fill-opacity="1"><g transform="translate(259.724414, 110.305983)"><g><path d="M 5.597656 0 L 18.40625 0 L 18.40625 -40.257812 L 30.246094 -40.257812 L 30.246094 -52.960938 L 18.40625 -52.960938 L 18.40625 -75.242188 C 18.40625 -77.070312 18.945312 -78.6875 20.238281 -79.976562 C 21.3125 -81.160156 22.929688 -81.808594 24.972656 -81.808594 C 26.695312 -81.808594 28.203125 -81.160156 29.492188 -79.976562 C 31.109375 -78.363281 31.753906 -76.210938 31.324219 -73.519531 L 44.132812 -73.519531 C 44.457031 -77.394531 43.59375 -81.269531 41.550781 -84.929688 C 39.613281 -88.050781 37.246094 -90.417969 34.445312 -91.925781 C 31.753906 -93.539062 28.632812 -94.402344 24.972656 -94.402344 C 21.097656 -94.402344 17.976562 -93.539062 15.394531 -91.925781 C 12.269531 -89.988281 9.902344 -87.621094 8.289062 -84.929688 C 6.457031 -81.914062 5.597656 -78.792969 5.597656 -75.457031 L 5.597656 -52.960938 L 0 -52.960938 L 0 -40.257812 L 5.597656 -40.257812 Z M 5.597656 0 "/></g></g></g><g fill="#ff007a" fill-opacity="1"><g transform="translate(305.793209, 110.305983)"><g><path d="M 27.125 27.773438 C 31.753906 27.773438 36.167969 26.585938 40.257812 24.21875 C 44.347656 21.957031 47.578125 18.730469 50.054688 14.53125 C 52.53125 10.332031 53.820312 6.027344 53.820312 1.507812 L 53.820312 -61.355469 L 41.226562 -61.355469 L 41.226562 -25.617188 C 41.226562 -22.929688 40.582031 -20.558594 39.289062 -18.621094 C 37.996094 -16.46875 36.273438 -14.640625 34.121094 -13.238281 C 31.753906 -11.949219 29.386719 -11.410156 26.910156 -11.410156 C 24.328125 -11.410156 21.957031 -11.949219 19.914062 -13.238281 C 17.652344 -14.53125 15.929688 -16.363281 14.640625 -18.515625 C 13.347656 -20.667969 12.703125 -23.035156 12.703125 -25.617188 L 12.703125 -61.355469 L 0 -61.355469 L 0 -25.617188 C 0 -20.558594 1.183594 -16.039062 3.660156 -12.164062 C 6.027344 -7.964844 9.257812 -4.628906 13.457031 -2.261719 C 17.652344 0.109375 22.175781 1.292969 26.910156 1.292969 C 32.292969 1.292969 37.027344 0 41.226562 -2.796875 L 41.226562 1.183594 C 41.226562 3.765625 40.582031 6.027344 39.398438 8.074219 C 38.105469 10.332031 36.382812 12.054688 34.230469 13.347656 C 32.078125 14.640625 29.710938 15.175781 27.125 15.175781 C 24.542969 15.175781 22.175781 14.53125 20.128906 13.238281 C 17.761719 11.949219 16.144531 10.332031 15.070312 8.179688 C 13.347656 5.488281 12.808594 2.582031 13.238281 -0.644531 L 0.429688 -0.644531 C 0 4.734375 1.183594 9.796875 3.984375 14.425781 C 6.351562 18.515625 9.6875 21.851562 13.777344 24.21875 C 17.652344 26.585938 22.066406 27.773438 27.125 27.773438 Z M 27.125 27.773438 "/></g></g></g></svg>